<svg width="18" height="18" viewBox="0 0 18 18" fill="none" xmlns="http://www.w3.org/2000/svg">
<path d="M15.7131 6.21904C15.6814 5.50173 15.5654 5.00859 15.3993 4.58127C15.2278 4.12769 14.9641 3.7216 14.6186 3.38401C14.281 3.04117 13.8722 2.77477 13.4239 2.60603C12.9941 2.43986 12.5036 2.32386 11.7863 2.29224C11.0636 2.25793 10.8342 2.25 9.00131 2.25C7.16843 2.25 6.93901 2.25793 6.21903 2.28956C5.50172 2.32118 5.00858 2.43728 4.58137 2.60335C4.12769 2.77477 3.72159 3.03849 3.38401 3.38401C3.04117 3.7216 2.77487 4.13037 2.60603 4.5787C2.43986 5.00859 2.32386 5.49905 2.29224 6.21636C2.25793 6.93902 2.25 7.16844 2.25 9.00132C2.25 10.8342 2.25793 11.0636 2.28956 11.7836C2.32118 12.5009 2.43728 12.994 2.60345 13.4214C2.77487 13.8749 3.04117 14.281 3.38401 14.6186C3.72159 14.9615 4.13037 15.2279 4.57869 15.3966C5.00858 15.5628 5.49905 15.6788 6.21645 15.7104C6.93634 15.7421 7.16586 15.75 8.99873 15.75C10.8316 15.75 11.061 15.7421 11.781 15.7104C12.4983 15.6788 12.9915 15.5628 13.4187 15.3966C14.3259 15.0458 15.0432 14.3285 15.394 13.4214C15.5601 12.9915 15.6762 12.5009 15.7078 11.7836C15.7394 11.0636 15.7474 10.8342 15.7474 9.00132C15.7474 7.16844 15.7447 6.93902 15.7131 6.21904ZM14.4974 11.7309C14.4683 12.3902 14.3576 12.7462 14.2653 12.9835C14.0384 13.5717 13.5716 14.0384 12.9835 14.2653C12.7462 14.3576 12.3876 14.4683 11.7308 14.4973C11.0188 14.529 10.8052 14.5368 9.00399 14.5368C7.20274 14.5368 6.98651 14.529 6.27703 14.4973C5.61772 14.4683 5.2617 14.3576 5.02434 14.2653C4.73167 14.1571 4.46527 13.9857 4.24904 13.7615C4.02488 13.5426 3.85346 13.2789 3.74529 12.9862C3.65299 12.7489 3.54224 12.3902 3.51329 11.7335C3.48157 11.0215 3.47374 10.8078 3.47374 9.00657C3.47374 7.20532 3.48157 6.98909 3.51329 6.27971C3.54224 5.62041 3.65299 5.26438 3.74529 5.02703C3.85346 4.73425 4.02488 4.46795 4.25172 4.25162C4.47053 4.02745 4.73425 3.85603 5.02702 3.74797C5.26437 3.65567 5.62308 3.54492 6.27971 3.51587C6.99176 3.48425 7.20542 3.47631 9.00656 3.47631C10.8105 3.47631 11.024 3.48425 11.7335 3.51587C12.3928 3.54492 12.7489 3.65567 12.9862 3.74797C13.2789 3.85603 13.5453 4.02745 13.7615 4.25162C13.9857 4.47053 14.1571 4.73425 14.2653 5.02703C14.3576 5.26438 14.4683 5.62298 14.4974 6.27971C14.529 6.99177 14.5369 7.20532 14.5369 9.00657C14.5369 10.8078 14.529 11.0188 14.4974 11.7309Z" fill="black"/>
<path d="M9.00117 5.53345C7.0866 5.53345 5.5332 7.08674 5.5332 9.00141C5.5332 10.9161 7.0866 12.4694 9.00117 12.4694C10.9158 12.4694 12.4691 10.9161 12.4691 9.00141C12.4691 7.08674 10.9158 5.53345 9.00117 5.53345ZM9.00117 11.251C7.75909 11.251 6.75158 10.2436 6.75158 9.00141C6.75158 7.75923 7.75909 6.75183 9.00117 6.75183C10.2433 6.75183 11.2507 7.75923 11.2507 9.00141C11.2507 10.2436 10.2433 11.251 9.00117 11.251Z" fill="black"/>
<path d="M13.4162 5.39628C13.4162 5.84338 13.0537 6.2059 12.6065 6.2059C12.1594 6.2059 11.7969 5.84338 11.7969 5.39628C11.7969 4.94908 12.1594 4.58667 12.6065 4.58667C13.0537 4.58667 13.4162 4.94908 13.4162 5.39628Z" fill="black"/>
</svg>
