<svg width="14" height="19" viewBox="0 0 14 19" fill="none" xmlns="http://www.w3.org/2000/svg">
<path d="M7.2193 0C3.5669 0 0.595459 3.08683 0.595459 6.88104C0.595459 11.5898 6.52315 18.5025 6.77553 18.7945C7.01258 19.0687 7.42645 19.0682 7.66308 18.7945C7.91545 18.5025 13.8431 11.5898 13.8431 6.88104C13.8431 3.08683 10.8717 0 7.2193 0ZM7.2193 10.3431C5.38169 10.3431 3.88672 8.79002 3.88672 6.88104C3.88672 4.97206 5.38172 3.41904 7.2193 3.41904C9.05688 3.41904 10.5519 4.9721 10.5519 6.88108C10.5519 8.79006 9.05688 10.3431 7.2193 10.3431Z" fill="#008E66"/>
</svg>
