<svg width="18" height="18" viewBox="0 0 18 18" fill="none" xmlns="http://www.w3.org/2000/svg">
<path d="M17.5102 13.2102L14.9983 10.6982C14.1012 9.80111 12.576 10.16 12.2172 11.3262C11.948 12.1337 11.0509 12.5822 10.2435 12.4028C8.44926 11.9542 6.02701 9.62168 5.57845 7.73772C5.30931 6.93027 5.84759 6.03314 6.655 5.76404C7.82127 5.40519 8.18012 3.88007 7.28299 2.98295L4.77104 0.470991C4.05334 -0.156997 2.97679 -0.156997 2.3488 0.470991L0.644257 2.17553C-1.06028 3.96978 0.823682 8.72455 5.04018 12.941C9.25667 17.1575 14.0114 19.1313 15.8057 17.337L17.5102 15.6324C18.1383 14.9147 18.1383 13.8382 17.5102 13.2102Z" fill="#008E66"/>
</svg>
