<svg width="16" height="10" viewBox="0 0 16 10" fill="none" xmlns="http://www.w3.org/2000/svg">
<path d="M15.1842 1.14124C15.2893 0.792493 15.1842 0.536743 14.6877 0.536743H13.043C12.6245 0.536743 12.4332 0.757993 12.3282 1.00099C12.3282 1.00099 11.492 3.04024 10.307 4.36249C9.9245 4.74724 9.74975 4.86874 9.54125 4.86874C9.437 4.86874 9.2855 4.74724 9.2855 4.39849V1.14124C9.2855 0.722743 9.16475 0.536743 8.816 0.536743H6.2315C5.9705 0.536743 5.813 0.730243 5.813 0.914743C5.813 1.31074 6.4055 1.40224 6.46625 2.51824V4.93924C6.46625 5.46949 6.371 5.56624 6.161 5.56624C5.60375 5.56624 4.24775 3.51949 3.443 1.17649C3.28625 0.721243 3.128 0.537493 2.708 0.537493H1.064C0.59375 0.537493 0.5 0.758743 0.5 1.00174C0.5 1.43824 1.05725 3.59824 3.09575 6.45499C4.45475 8.40574 6.368 9.46324 8.111 9.46324C9.15575 9.46324 9.28475 9.22849 9.28475 8.82349V7.34899C9.28475 6.87949 9.3845 6.78499 9.71525 6.78499C9.95825 6.78499 10.3767 6.90799 11.3525 7.84774C12.467 8.96224 12.6515 9.46249 13.2778 9.46249H14.9218C15.3912 9.46249 15.626 9.22774 15.491 8.76424C15.3433 8.30299 14.8108 7.63174 14.1042 6.83749C13.7203 6.38449 13.1465 5.89699 12.9718 5.65324C12.728 5.33899 12.7985 5.20024 12.9718 4.92124C12.9725 4.92199 14.9757 2.10049 15.1842 1.14124Z" fill="black"/>
</svg>
