<svg width="18" height="18" fill="none" xmlns="http://www.w3.org/2000/svg"><path d="M15.713 6.219c-.032-.717-.148-1.21-.314-1.638a3.296 3.296 0 00-.78-1.197 3.323 3.323 0 00-1.195-.778c-.43-.166-.92-.282-1.638-.314-.722-.034-.952-.042-2.785-.042-1.833 0-2.062.008-2.782.04-.717.031-1.21.147-1.638.313-.453.172-.86.435-1.197.781a3.31 3.31 0 00-.778 1.195c-.166.43-.282.92-.314 1.637-.034.723-.042.952-.042 2.785 0 1.833.008 2.063.04 2.783.031.717.147 1.21.313 1.637.172.454.438.86.781 1.198.338.342.746.609 1.195.778.43.166.92.282 1.637.313.72.032.95.04 2.783.04s2.062-.008 2.782-.04c.717-.031 1.21-.147 1.638-.313a3.453 3.453 0 001.975-1.976c.166-.43.282-.92.314-1.637.031-.72.04-.95.04-2.783s-.003-2.062-.035-2.782zm-1.216 5.512c-.029.66-.14 1.015-.232 1.252a2.24 2.24 0 01-1.282 1.282c-.237.093-.595.203-1.252.232-.712.032-.926.04-2.727.04-1.801 0-2.017-.008-2.727-.04-.66-.029-1.015-.14-1.253-.232a2.077 2.077 0 01-.775-.504 2.099 2.099 0 01-.504-.775c-.092-.237-.203-.596-.232-1.253-.031-.712-.04-.925-.04-2.726 0-1.802.009-2.018.04-2.727.03-.66.14-1.016.232-1.253.108-.293.28-.559.507-.775.219-.225.482-.396.775-.504.237-.092.596-.203 1.253-.232.712-.032.925-.04 2.727-.04 1.803 0 2.017.008 2.726.04.66.029 1.016.14 1.253.232.293.108.56.28.775.504.225.219.396.482.504.775.093.237.203.596.232 1.253.032.712.04.925.04 2.727 0 1.8-.008 2.012-.04 2.724z" fill="#000"/><path d="M9.001 5.533a3.469 3.469 0 10.002 6.938A3.469 3.469 0 009 5.533zm0 5.718a2.25 2.25 0 110-4.5 2.25 2.25 0 010 4.5zm4.415-5.855a.81.81 0 11-1.62 0 .81.81 0 011.62 0z" fill="#000"/></svg>