<svg width="12" height="10" fill="none" xmlns="http://www.w3.org/2000/svg"><path d="M12 1.28a5.13 5.13 0 01-1.418.388c.51-.305.9-.783 1.083-1.36-.476.284-1 .484-1.56.595A2.46 2.46 0 005.85 2.585c0 .196.016.383.056.562A6.963 6.963 0 01.836.574a2.464 2.464 0 00.756 3.288A2.43 2.43 0 01.48 3.558v.028c0 1.195.853 2.188 1.971 2.417-.2.054-.418.08-.645.08-.157 0-.317-.008-.466-.041a2.484 2.484 0 002.3 1.713A4.943 4.943 0 010 8.771a6.926 6.926 0 003.774 1.104c4.527 0 7.002-3.75 7.002-7 0-.11-.004-.214-.009-.318.488-.347.899-.78 1.233-1.278z" fill="#fff"/></svg>