<svg width="16" height="10" fill="none" xmlns="http://www.w3.org/2000/svg"><path d="M15.184 1.141c.105-.349 0-.604-.496-.604h-1.645c-.418 0-.61.221-.715.464 0 0-.836 2.04-2.021 3.361-.383.385-.557.507-.766.507-.104 0-.255-.122-.255-.47V1.14c0-.418-.121-.604-.47-.604H6.231c-.26 0-.418.193-.418.378 0 .396.593.487.653 1.603V4.94c0 .53-.095.627-.305.627-.557 0-1.913-2.047-2.718-4.39-.157-.455-.315-.639-.735-.639H1.064C.594.537.5.76.5 1.002c0 .436.557 2.596 2.596 5.453 1.359 1.95 3.272 3.008 5.015 3.008 1.045 0 1.174-.235 1.174-.64V7.35c0-.47.1-.564.43-.564.243 0 .662.123 1.637 1.063 1.115 1.114 1.3 1.614 1.926 1.614h1.644c.47 0 .704-.234.569-.698-.148-.461-.68-1.132-1.387-1.927-.384-.453-.957-.94-1.132-1.184-.244-.314-.173-.453 0-.732 0 .001 2.004-2.82 2.212-3.78z" fill="#000"/></svg>